<svg width="40" height="95" viewBox="0 0 40 95" fill="none" xmlns="http://www.w3.org/2000/svg">
<g clip-path="url(#clip0_212_842)">
<path d="M15.57 56.06H22.43C27.54 56.06 32.12 53.81 35.28 50.26V6.89H36.12C37.83 6.89 39.22 5.49 39.22 3.79V3.1C39.22 1.39 37.82 0 36.12 0H3.1C1.4 0 0 1.4 0 3.1V3.79C0 5.5 1.4 6.89 3.1 6.89H3.94V51.5C7.01 54.32 11.09 56.06 15.57 56.06ZM19.33 11.63C21.19 11.63 22.7 13.14 22.7 15C22.7 16.86 21.19 18.37 19.33 18.37C17.47 18.37 15.96 16.86 15.96 15C15.96 13.14 17.47 11.63 19.33 11.63ZM19.33 23.63C21.19 23.63 22.7 25.14 22.7 27C22.7 28.86 21.19 30.37 19.33 30.37C17.47 30.37 15.96 28.86 15.96 27C15.96 25.14 17.47 23.63 19.33 23.63ZM19.33 35.63C21.19 35.63 22.7 37.14 22.7 39C22.7 40.86 21.19 42.37 19.33 42.37C17.47 42.37 15.96 40.86 15.96 39C15.96 37.14 17.47 35.63 19.33 35.63Z" fill="#6557A1"/>
<path d="M36.12 87.78H35.28V59.18C31.62 61.63 27.26 63.05 22.58 63.05H15.94C11.56 63.05 7.46 61.8 3.95 59.63V87.77H3.1C1.39 87.77 0 89.17 0 90.87V91.56C0 93.27 1.4 94.66 3.1 94.66H36.12C37.83 94.66 39.22 93.26 39.22 91.56V90.87C39.22 89.17 37.83 87.78 36.12 87.78Z" fill="#6557A1"/>
</g>
<defs>
<clipPath id="clip0_212_842">
<rect width="39.22" height="94.67" fill="white"/>
</clipPath>
</defs>
</svg>
