<svg width="47" height="82" viewBox="0 0 47 82" fill="none" xmlns="http://www.w3.org/2000/svg">
<g clip-path="url(#clip0_212_790)">
<path d="M43.4651 61.4962C43.6239 61.3362 43.7904 61.1914 43.9644 61.039V9.15089C43.9644 5.37928 40.9003 2.29343 37.1553 2.29343C37.1553 2.29343 35.0444 2.17151 34.5527 2.6363C34.0609 3.10108 34.2122 4.09922 34.2122 4.09922C34.2122 6.52219 32.2451 8.50324 29.8392 8.50324H16.395C13.9891 8.50324 12.022 6.52219 12.022 4.09922C12.022 4.09922 12.0825 3.09346 11.6588 2.65916C11.3486 2.35438 9.07891 2.30104 9.07891 2.30104C5.33389 2.30104 2.26978 5.3869 2.26978 9.15851V72.651C2.26978 76.4226 5.33389 79.5084 9.07891 79.5084H25.5797L43.4651 61.4962Z" stroke="#6557A1" stroke-width="6" stroke-miterlimit="10"/>
<path d="M31.481 60.6276C28.4396 60.6276 25.9429 62.8753 25.9429 65.6259V76.8874L43.2229 61.2905C43.3818 61.1457 43.5407 61.0238 43.7072 60.8942V60.6276H31.481Z" stroke="#6557A1" stroke-width="6" stroke-miterlimit="10"/>
</g>
<defs>
<clipPath id="clip0_212_790">
<rect width="46.234" height="82" fill="white"/>
</clipPath>
</defs>
</svg>
