<svg width="90" height="70" viewBox="0 0 90 70" fill="none" xmlns="http://www.w3.org/2000/svg">
<g clip-path="url(#clip0_212_785)">
<path d="M40.2702 43.48L55.6002 26.37H44.7102L48.2702 12.15L35.1602 30.81H45.8202L40.2702 43.48Z" fill="#6557A1"/>
<path d="M10.2401 40.61C12.9401 41.45 17.5101 43.23 20.7501 46.42C22.4201 49.18 25.4401 51.04 28.8801 51.04H61.2201C64.7701 51.04 67.8701 49.07 69.5101 46.16C72.7401 43.14 77.1101 41.42 79.7401 40.61C81.0901 40.19 81.9901 38.93 81.9701 37.51C81.9101 33.09 81.8001 23.91 81.7401 19.26C81.7201 17.8 80.7301 16.49 79.2901 16.19C74.8301 15.25 71.7001 11.91 70.2201 9.97999C68.9601 6.20999 65.3901 3.46999 61.2101 3.46999H43.3401C43.3501 3.34999 43.3801 3.22999 43.3801 3.09999C43.3801 1.38999 41.9801 -0.0100098 40.2701 -0.0100098H34.4901C32.7801 -0.0100098 31.3801 1.38999 31.3801 3.09999C31.3801 3.22999 31.4001 3.34999 31.4201 3.46999H28.8801C24.8301 3.46999 21.3601 6.04999 20.0001 9.63999C18.6501 11.48 15.4101 15.19 10.6801 16.18C9.25008 16.48 8.25008 17.79 8.23008 19.25C8.17008 23.91 8.06008 33.09 8.00008 37.51C7.99008 38.92 8.89008 40.19 10.2401 40.61ZM25.1401 16.18C25.1401 12.13 28.4601 8.80999 32.5101 8.80999H57.5901C61.6401 8.80999 64.9601 12.13 64.9601 16.18V38.33C64.9601 42.38 61.6401 45.7 57.5901 45.7H32.5101C28.4601 45.7 25.1401 42.38 25.1401 38.33V16.18Z" fill="#6557A1"/>
<path d="M81.9501 43.2L73.2801 46.31C73.2801 46.31 70.1701 53.64 63.7201 55.64C57.2701 57.64 44.1601 57.86 44.1601 57.86V57.9C40.9801 57.8 31.4301 57.36 26.1101 55.71C19.6701 53.71 16.5501 46.38 16.5501 46.38L7.88009 43.27C7.88009 43.27 -3.00991 42.6 0.770086 55.49C4.10009 66.78 34.9301 69.54 43.9501 69.15V69.2C43.9501 69.2 85.2801 68.31 89.0601 55.42C92.8401 42.54 81.9501 43.2 81.9501 43.2Z" fill="#6557A1"/>
</g>
<defs>
<clipPath id="clip0_212_785">
<rect width="89.86" height="69.2" fill="white"/>
</clipPath>
</defs>
</svg>
