<svg width="54" height="82" viewBox="0 0 54 82" fill="none" xmlns="http://www.w3.org/2000/svg">
<g clip-path="url(#clip0_212_773)">
<path d="M19.0482 35.1766C21.8896 35.1766 24.1931 32.8869 24.1931 30.0624C24.1931 27.2379 21.8896 24.9482 19.0482 24.9482C16.2068 24.9482 13.9033 27.2379 13.9033 30.0624C13.9033 32.8869 16.2068 35.1766 19.0482 35.1766Z" fill="#6557A1"/>
<path d="M9.00791 45.1571C11.8493 45.1571 14.1528 42.8674 14.1528 40.0429C14.1528 37.2184 11.8493 34.9287 9.00791 34.9287C6.16647 34.9287 3.86304 37.2184 3.86304 40.0429C3.86304 42.8674 6.16647 45.1571 9.00791 45.1571Z" fill="#6557A1"/>
<path d="M5.14487 58.7181C7.9863 58.7181 10.2897 56.4284 10.2897 53.6039C10.2897 50.7794 7.9863 48.4897 5.14487 48.4897C2.30344 48.4897 0 50.7794 0 53.6039C0 56.4284 2.30344 58.7181 5.14487 58.7181Z" fill="#6557A1"/>
<path d="M9.00791 72.2732C11.8493 72.2732 14.1528 69.9835 14.1528 67.1591C14.1528 64.3346 11.8493 62.0449 9.00791 62.0449C6.16647 62.0449 3.86304 64.3346 3.86304 67.1591C3.86304 69.9835 6.16647 72.2732 9.00791 72.2732Z" fill="#6557A1"/>
<path d="M19.5587 82C22.4001 82 24.7036 79.7103 24.7036 76.8858C24.7036 74.0613 22.4001 71.7716 19.5587 71.7716C16.7173 71.7716 14.4138 74.0613 14.4138 76.8858C14.4138 79.7103 16.7173 82 19.5587 82Z" fill="#6557A1"/>
<path d="M34.7437 35.1766C37.5852 35.1766 39.8886 32.8869 39.8886 30.0624C39.8886 27.2379 37.5852 24.9482 34.7437 24.9482C31.9023 24.9482 29.5989 27.2379 29.5989 30.0624C29.5989 32.8869 31.9023 35.1766 34.7437 35.1766Z" fill="#6557A1"/>
<path d="M44.784 45.1571C47.6255 45.1571 49.9289 42.8674 49.9289 40.0429C49.9289 37.2184 47.6255 34.9287 44.784 34.9287C41.9426 34.9287 39.6392 37.2184 39.6392 40.0429C39.6392 42.8674 41.9426 45.1571 44.784 45.1571Z" fill="#6557A1"/>
<path d="M48.6471 58.7181C51.4885 58.7181 53.7919 56.4284 53.7919 53.6039C53.7919 50.7794 51.4885 48.4897 48.6471 48.4897C45.8056 48.4897 43.5022 50.7794 43.5022 53.6039C43.5022 56.4284 45.8056 58.7181 48.6471 58.7181Z" fill="#6557A1"/>
<path d="M44.784 72.2732C47.6255 72.2732 49.9289 69.9835 49.9289 67.1591C49.9289 64.3346 47.6255 62.0449 44.784 62.0449C41.9426 62.0449 39.6392 64.3346 39.6392 67.1591C39.6392 69.9835 41.9426 72.2732 44.784 72.2732Z" fill="#6557A1"/>
<path d="M34.2335 82C37.0749 82 39.3784 79.7103 39.3784 76.8858C39.3784 74.0613 37.0749 71.7716 34.2335 71.7716C31.3921 71.7716 29.0886 74.0613 29.0886 76.8858C29.0886 79.7103 31.3921 82 34.2335 82Z" fill="#6557A1"/>
<path d="M26.1014 24.6369L25.2893 23.8643C25.0689 23.6567 19.9125 18.6982 18.4914 12.5462C17.6097 8.7235 18.2014 5.16029 20.1155 2.77328C21.5655 0.962846 23.6305 0.0057373 26.0898 0.0057373C28.5433 0.0057373 30.6082 0.945549 32.0583 2.72715C33.9782 5.07957 34.6104 8.65431 33.7868 12.5289C32.5687 18.2715 27.1338 23.6336 26.9018 23.8585L26.1014 24.6369ZM26.0898 2.30626C24.3381 2.30626 22.9402 2.94625 21.931 4.20318C20.4809 6.01361 20.0401 8.93683 20.7535 12.0273C21.699 16.1209 24.6455 19.7648 26.084 21.3504C27.5805 19.6899 30.7068 15.8672 31.5189 12.0446C32.1859 8.89647 31.7161 5.95596 30.2602 4.17435C29.2509 2.93472 27.8473 2.30626 26.0898 2.30626Z" fill="#6557A1"/>
</g>
<defs>
<clipPath id="clip0_212_773">
<rect width="53.792" height="82" fill="white"/>
</clipPath>
</defs>
</svg>
